<?xml version="1.0" encoding="utf-8"?>
<!-- Generator: Adobe Illustrator 26.1.0, SVG Export Plug-In . SVG Version: 6.00 Build 0)  -->
<svg version="1.1" id="Layer_1" xmlns="http://www.w3.org/2000/svg" xmlns:xlink="http://www.w3.org/1999/xlink" x="0px" y="0px"
	 viewBox="0 0 16.7 27.6" style="enable-background:new 0 0 16.7 27.6;" xml:space="preserve">
<g>
	<path d="M8.3,24.1c-0.8-1.4-1.7-2.8-2.5-4.3c-1.1-2-2.2-3.9-3.3-5.9C1.8,12.4,1.2,11,0.9,9.4C0.4,6.5,1,4.1,3.2,2
		c1.7-1.6,3.8-2.3,6.1-2c3.6,0.4,6.2,3.2,6.6,6.6c0.2,1.7-0.2,3.3-0.7,4.8c-0.9,2.4-2.1,4.6-3.4,6.7c-1.1,1.9-2.2,3.7-3.3,5.6
		C8.4,23.9,8.4,24,8.3,24.1z M8.3,4.7C7,4.7,5.6,5.9,5.6,7.5c0,1.5,1.3,2.7,2.8,2.7c1.5,0,2.7-1.3,2.7-2.8C11,5.8,9.7,4.7,8.3,4.7z"
		/>
	<path d="M11.9,22.1c0.4-0.6,0.7-1.2,1.1-1.8c1.1,0.4,2.1,0.8,2.9,1.6c1.1,1.1,1.1,2.4,0.1,3.5c-0.8,0.9-1.9,1.4-3.1,1.7
		c-1.8,0.5-3.6,0.6-5.5,0.6c-1.7-0.1-3.3-0.4-4.9-1c-0.8-0.3-1.5-0.8-2-1.5c-0.9-1.2-0.6-2.6,0.6-3.6c0.8-0.6,1.7-1,2.6-1.3
		c0.4,0.6,0.7,1.2,1.1,1.8c-0.7,0.3-1.3,0.5-2,0.8c-0.3,0.2-0.7,0.4-0.7,0.8c0,0.5,0.4,0.7,0.7,0.9c0.9,0.5,1.9,0.8,3,0.9
		c1.3,0.2,2.7,0.3,4,0.1c1.5-0.2,2.9-0.4,4.2-1.2c0.1-0.1,0.3-0.2,0.4-0.4c0.2-0.3,0.2-0.6,0-0.8c-0.3-0.3-0.7-0.5-1.1-0.7
		C12.9,22.3,12.4,22.2,11.9,22.1z"/>
</g>
</svg>
