<?xml version="1.0" encoding="utf-8"?>
<!-- Generator: Adobe Illustrator 26.1.0, SVG Export Plug-In . SVG Version: 6.00 Build 0)  -->
<svg version="1.1" id="Layer_1" xmlns="http://www.w3.org/2000/svg" xmlns:xlink="http://www.w3.org/1999/xlink" x="0px" y="0px"
	 viewBox="0 0 28.2 27.1" style="enable-background:new 0 0 28.2 27.1;" xml:space="preserve">
<g>
	<polygon points="0,4.7 7.8,27.1 9.9,26.3 1.4,4.1 	"/>
	<path d="M28.2,9.5c-1.3-3.2-2.5-6.3-3.8-9.5c-0.1,0-0.1,0.1-0.2,0.1c-2.2,1.4-3.8,2.1-5,2.6c-0.8,0.3-1.5,0.5-1.9,0.5c0,0,0,0,0,0
		l0,0c0,0-0.1,0-0.1,0c0,0.1,0.1,0.3,0.1,0.4v0v0c0,0.1,0.1,0.3,0.1,0.4c0,0,0.1,0,0.1,0c0.3,0,1-0.1,2.3-0.6c0,0.1,0,0.1,0.1,0.2
		C20.4,5,21,6.6,21.5,8.1c0,0.1,0.1,0.2,0.1,0.3c1.5-0.7,2.9-1.5,4.1-2.7c0.5,1.3,1,2.5,1.5,3.8c0.1,0.2,0,0.3-0.1,0.4
		c-0.6,0.7-1.3,1.3-2,1.8c-0.6,0.4-1.3,0.8-1.9,1.2c-0.6-1.5-1.1-3-1.6-4.5c-0.9,0.4-1.8,0.8-2.7,1c0-0.1-0.1-0.1-0.1-0.2
		c-1.4-3.1-2.7-6.2-4.1-9.3c0,0,0,0,0,0l0,0C11,0.1,8,1.3,6.1,2.3C5,2.9,4.1,3.5,3.5,4C2.8,4.5,2.4,4.9,2.4,4.9l0,0
		c1.7,4.4,3.4,8.8,5.2,13.1c0,0.1,0.1,0.1,0.1,0.2C7.8,18.1,7.9,18,8,17.9c0.1-0.1,0.2-0.2,0.3-0.3c1.7-1.9,3.6-3.4,5.7-4.7
		c1.2-0.8,2.5-1.5,3.9-1.9c0.4-0.1,0.8-0.2,1.2-0.2c0.5,0,0.7,0.3,0.6,0.8c0,0.1,0,0.1,0,0.2c-0.4,1-1,1.7-1.7,2.5
		c0.1-0.2,0.3-0.5,0.4-0.7c0.1-0.3,0.3-0.6,0.3-0.9c0.1-0.4-0.1-0.6-0.5-0.6c-0.1,0-0.2,0-0.2,0c-0.9,0.2-1.6,0.6-2.3,1.2
		c-0.3,0.2-0.6,0.5-0.9,0.8c0.4,0.9,1.1,1.3,2.1,1.5c1,0.2,2.1,0,3.1-0.2c2.3-0.6,4.5-1.7,6.4-3.1c0.7-0.6,1.4-1.2,1.9-1.9
		C28.3,9.9,28.3,9.7,28.2,9.5z M17.3,3.2L17.3,3.2C17.3,3.3,17.3,3.3,17.3,3.2L17.3,3.2z M13,12.3c-0.7-1.6-1.3-3.2-2-4.8
		c-1.9,0.9-3.7,2-5.3,3.3c0-0.1-0.1-0.1-0.1-0.2C4.9,8.8,4.2,6.9,3.5,5.1c0-0.1,0-0.2,0-0.2c0.2-0.2,0.4-0.4,0.7-0.6
		c0.7-0.5,1.3-0.9,2-1.3c0.7-0.4,1.4-0.7,2.4-1.1c0.8,1.8,1.6,3.7,2.4,5.5c0.6-0.2,1.1-0.4,1.7-0.6c1.1-0.4,2.3-0.7,3.4-0.9
		c0.1,0,0.2,0,0.2,0.1c0.6,1.3,1.1,2.5,1.7,3.8C16.2,10.4,14.6,11.3,13,12.3z"/>
</g>
</svg>
