<?xml version="1.0" encoding="utf-8"?>
<!-- Generator: Adobe Illustrator 26.1.0, SVG Export Plug-In . SVG Version: 6.00 Build 0)  -->
<svg version="1.1" id="Layer_1" xmlns="http://www.w3.org/2000/svg" xmlns:xlink="http://www.w3.org/1999/xlink" x="0px" y="0px"
	 viewBox="0 0 344 200" style="enable-background:new 0 0 344 200;" xml:space="preserve">
<style type="text/css">
	.st0{fill-rule:evenodd;clip-rule:evenodd;}
	.st1{fill-rule:evenodd;clip-rule:evenodd;fill:#FAC000;}
	.st2{fill:#FAC000;}
</style>
<g>
	<polygon class="st0" points="0.3,200 69.9,200 113.2,66.7 43.6,66.7 	"/>
	<polygon class="st1" points="91.6,133.3 161.2,133.3 204.5,0 134.9,0 	"/>
	<polygon class="st0" points="139.5,200 209.1,200 252.4,66.7 182.8,66.7 	"/>
	<polygon class="st1" points="230.8,133.3 300.4,133.3 343.7,0 274.1,0 	"/>
	<path class="st2" d="M108,84.1H79l-16,49.2H40.9l21.6-66.6h51.1L108,84.1z"/>
	<path d="M108.3,129.3c-4.5-2.9-7.5-6.8-9-11.9s-1.1-10.8,0.9-17.2c2.1-6.4,5.5-12.1,10.2-17.2s10.3-9,16.7-11.9
		c6.4-2.9,13-4.3,19.9-4.3s12.6,1.4,17.1,4.3s7.5,6.8,9,11.9s1.1,10.8-0.9,17.2c-2.1,6.4-5.5,12.1-10.2,17.2s-10.3,9-16.7,11.9
		s-13,4.3-19.9,4.3C118.5,133.5,112.8,132.1,108.3,129.3z M138.9,114.2c2.6-1.3,4.9-3.2,7-5.6s3.6-5.2,4.6-8.4c1-3.2,1.3-6,0.8-8.4
		s-1.6-4.2-3.3-5.6c-1.7-1.3-3.9-2-6.6-2s-5.3,0.7-7.9,2c-2.6,1.3-4.9,3.2-7,5.6c-2.1,2.4-3.6,5.2-4.6,8.4c-1,3.2-1.3,6-0.8,8.4
		s1.6,4.3,3.3,5.6c1.7,1.3,3.9,2,6.6,2C133.7,116.1,136.3,115.5,138.9,114.2z"/>
	<path class="st2" d="M182.2,129.1c-4.5-2.8-7.4-6.8-8.9-11.8c-1.4-5.1-1.1-10.8,1-17.3c2.1-6.4,5.5-12.2,10.2-17.3
		c4.7-5.1,10.2-9,16.6-11.8c6.3-2.8,12.9-4.2,19.6-4.2c6.2,0,11.4,1.1,15.5,3.3c4.1,2.2,7.1,5.3,9,9.5l-17.5,12.1
		c-2.3-5-6.2-7.5-11.5-7.5c-4.5,0-8.6,1.4-12.3,4.3s-6.3,6.8-7.9,11.6c-1.6,4.9-1.5,8.7,0.3,11.6s4.9,4.3,9.4,4.3
		c5.3,0,10.8-2.5,16.4-7.5l9.6,12.1c-4.5,4.1-9.5,7.3-15.1,9.5s-11.5,3.3-17.6,3.3C192.3,133.4,186.7,132,182.2,129.1z"/>
	<path d="M316.4,84.2h-24.5l-16,49.2h-22.1l16-49.2h-23.5l5.7-17.5h70.1L316.4,84.2z"/>
</g>
</svg>
