<?xml version="1.0" encoding="utf-8"?>
<!-- Generator: Adobe Illustrator 26.1.0, SVG Export Plug-In . SVG Version: 6.00 Build 0)  -->
<svg version="1.1" id="Layer_1" xmlns="http://www.w3.org/2000/svg" xmlns:xlink="http://www.w3.org/1999/xlink" x="0px" y="0px"
	 viewBox="0 0 26.2 27.6" style="enable-background:new 0 0 26.2 27.6;" xml:space="preserve">
<path d="M17.1,27.6c-1.1,0-2.2-0.2-3.2-0.6c-0.7-0.3-1.3-0.7-2-1.1c-1.8-1.1-3.4-2.5-4.9-4.1C6,20.7,4.9,19.5,4,18.2
	c-1-1.4-1.9-2.8-2.6-4.3C0.9,13,0.5,12,0.3,11C0,10-0.1,9.1,0,8.1c0.2-1.4,0.7-2.7,1.7-3.8c0.6-0.6,1.3-1,2.1-1.3
	c0.7-0.2,1.5-0.3,2.2-0.3c0.7,0,1.2,0.4,1.5,1C7.8,4.1,7.9,4.5,8,4.9c0.3,1.2,0.6,2.4,0.8,3.6c0,0.3,0.1,0.6,0.1,0.8
	C9,9.7,8.8,10,8.5,10.2c-0.3,0.2-0.6,0.4-0.9,0.5c-0.3,0.1-0.7,0.3-1,0.5c-0.1,0-0.1,0.1-0.2,0.1c-0.2,0.1-0.3,0.3-0.3,0.6
	c0.1,0.5,0.2,0.9,0.4,1.3c0.5,1.1,1.1,2.2,1.9,3.2c0.7,0.9,1.4,1.7,2.2,2.4c0.6,0.5,1.2,0.9,1.8,1.4c0.3,0.2,0.6,0.4,0.9,0.6
	c0.1,0.1,0.2,0.1,0.4,0.1c0.3,0.1,0.5,0,0.7-0.2c0.2-0.2,0.4-0.5,0.5-0.7c0.2-0.4,0.5-0.8,0.9-1.1c0.3-0.3,0.7-0.3,1.1-0.2
	c0.7,0.2,1.3,0.5,1.9,0.7c1,0.4,2,0.8,3,1.4c0.2,0.1,0.4,0.3,0.6,0.4c0.2,0.2,0.4,0.5,0.4,0.8c0,0.7-0.1,1.3-0.3,1.9
	c-0.4,1.1-1.1,2.1-2.1,2.8c-0.7,0.5-1.6,0.8-2.5,0.9C17.6,27.6,17.3,27.6,17.1,27.6z"/>
<path d="M26.2,14.2c0,0.3,0,0.5,0,0.8c0,0.4-0.3,0.6-0.6,0.6c-0.4,0-0.6-0.3-0.6-0.7C25,13,24.7,11.2,24,9.4
	c-0.6-1.4-1.3-2.7-2.4-3.9c-1.3-1.5-3-2.7-4.8-3.5c-0.8-0.4-1.7-0.6-2.6-0.8c-0.3-0.1-0.5-0.3-0.5-0.6c0-0.3,0.2-0.6,0.5-0.6
	c0.1,0,0.2,0,0.3,0c1.8,0.4,3.5,1.1,5,2.1c1.6,1,3,2.4,4.1,4c0.7,1,1.3,2.2,1.7,3.4c0.3,0.9,0.5,1.8,0.7,2.7
	C26.1,12.8,26.2,13.5,26.2,14.2z"/>
<path d="M22.5,13.7c0,0.1,0,0.3,0,0.4c0,0.4-0.3,0.6-0.6,0.6c-0.3,0-0.6-0.3-0.6-0.6c0-2.1-0.6-4-1.8-5.7C18.4,7,17,5.9,15.4,5.3
	c-0.4-0.2-0.8-0.3-1.3-0.4c-0.4-0.1-0.6-0.4-0.5-0.8c0.1-0.3,0.4-0.5,0.8-0.5c1.4,0.3,2.8,0.9,3.9,1.8c2.2,1.7,3.6,3.9,4.1,6.7
	C22.5,12.7,22.5,13.2,22.5,13.7C22.6,13.7,22.5,13.7,22.5,13.7z"/>
<path d="M18.8,13.3c0,0.1,0,0.3,0,0.4c-0.1,0.3-0.4,0.5-0.7,0.5c-0.3,0-0.5-0.3-0.5-0.6c0-0.5-0.1-1.1-0.2-1.6
	c-0.6-1.7-1.8-2.8-3.5-3.2c-0.5-0.1-0.7-0.7-0.4-1.1c0.2-0.2,0.4-0.2,0.6-0.2c2.3,0.6,3.8,2,4.5,4.3C18.7,12.3,18.8,12.8,18.8,13.3z
	"/>
</svg>
