<?xml version="1.0" encoding="utf-8"?>
<!-- Generator: Adobe Illustrator 26.1.0, SVG Export Plug-In . SVG Version: 6.00 Build 0)  -->
<svg version="1.1" id="Layer_1" xmlns="http://www.w3.org/2000/svg" xmlns:xlink="http://www.w3.org/1999/xlink" x="0px" y="0px"
	 viewBox="0 0 50 50" style="enable-background:new 0 0 50 50;" xml:space="preserve">
<style type="text/css">
	.st0{fill:#FFFFFF;}
</style>
<g>
	<path class="st0" d="M37.5,25c6.3,3.5,10.4,8.5,12.5,15.6c-2.9,0-5.7,0.1-8.4-0.1c-0.4,0-0.9-0.9-1.1-1.5
		c-2.4-5.1-6.1-8.6-12.1-9.5c0,3.7,0,7.2,0,10.8C13.4,41.9-0.2,31.2,0,9.4c1.4,0,2.8,0,4.2,0c1.4,0,2.7,0,4.1,0
		c0.8,8.8,2,17.2,11.6,21.7c0-7.5,0-14.5,0-21.6c2.7,0,5.3,0,8.1,0c0,3.9,0,7.9,0,12.1c2.7-0.2,4.7-1.4,6.2-3.2
		c2-2.4,3.6-5.1,5.2-7.8c0.5-0.9,0.9-1.3,1.9-1.3c2.1,0.1,4.2,0,6.3,0C48.1,13.6,44.1,19.7,37.5,25z"/>
</g>
</svg>
