<?xml version="1.0" encoding="utf-8"?>
<!-- Generator: Adobe Illustrator 26.1.0, SVG Export Plug-In . SVG Version: 6.00 Build 0)  -->
<svg version="1.1" id="Layer_1" xmlns="http://www.w3.org/2000/svg" xmlns:xlink="http://www.w3.org/1999/xlink" x="0px" y="0px"
	 viewBox="0 0 50 50" style="enable-background:new 0 0 50 50;" xml:space="preserve">
<style type="text/css">
	.st0{fill:#FFFFFF;}
</style>
<g>
	<path class="st0" d="M0.9,49.2c1-3.8,2-7.2,2.8-10.7c0.2-1.1,0.1-2.4-0.3-3.4c-3.9-9.1-3.1-17.7,3-25.3C12.6,2,21-0.7,30.7,1.5
		c9.5,2.2,15.6,8.5,17.7,18c2.1,9.4-0.7,17.6-8.2,23.7c-7.5,6.1-15.9,7-24.9,3.5c-1.1-0.4-2.6-0.6-3.8-0.3
		C8.1,47.2,4.7,48.2,0.9,49.2z M6.4,43.4c2.2-0.6,3.6-0.8,4.9-1.3c1.9-0.7,3.4-0.4,5.3,0.5c2.4,1.1,5.1,1.8,7.8,2
		c8.6,0.5,16.5-5,19.4-13.2c2.9-8.2,0.1-17.2-6.9-22.5c-6.8-5.1-16.1-5.2-23.1-0.3c-7.2,5-10.6,14.1-7.4,22.2C8,35,9,38.8,6.4,43.4z
		"/>
	<path class="st0" d="M32,36.5c-4.4-0.5-7.8-1.8-10.5-4.2c-2.7-2.5-5.1-5.3-7.2-8.2c-2.2-3.1-1.8-6.6,0.1-9c1.8-2.1,4.1-1.8,5.1,0.8
		c0.3,0.8,0.6,1.7,1.1,2.5c0.7,1.3,0.6,2.5-0.5,3.4c-1.1,1-1.1,2-0.1,2.9c2.1,1.9,4.2,3.8,6.4,5.5c1.2,1,2.4,0.7,3.1-0.7
		c1-1.9,2.4-1.9,4-0.8c0.5,0.3,1.1,0.5,1.6,0.8c2.5,1.2,2.9,3.6,0.6,5.4C34.6,35.6,32.9,36,32,36.5z"/>
</g>
</svg>
