<?xml version="1.0" encoding="utf-8"?>
<!-- Generator: Adobe Illustrator 26.1.0, SVG Export Plug-In . SVG Version: 6.00 Build 0)  -->
<svg version="1.1" id="Layer_1" xmlns="http://www.w3.org/2000/svg" xmlns:xlink="http://www.w3.org/1999/xlink" x="0px" y="0px"
	 viewBox="0 0 50 50" style="enable-background:new 0 0 50 50;" xml:space="preserve">
<style type="text/css">
	.st0{fill:#FFFFFF;}
</style>
<g>
	<path class="st0" d="M24.8,49.4c-3.8,0-7.7,0.3-11.4-0.1c-7.7-0.8-12-4.8-12.6-12.5c-0.5-7.8-0.5-15.7,0-23.5
		C1.4,5.7,5.6,1.4,13.2,0.9c7.9-0.5,15.9-0.5,23.8,0c7.5,0.5,11.7,4.7,12.2,12.2c0.6,7.9,0.6,15.9,0,23.8
		c-0.6,7.9-5.7,12.2-13.8,12.5c-3.5,0.2-7,0-10.5,0C24.8,49.4,24.8,49.4,24.8,49.4z M24.9,45.2c4-0.2,8.1-0.2,12.2-0.6
		c4.3-0.5,7.2-3.1,7.4-7.5c0.3-8.1,0.3-16.1,0-24.2c-0.2-4.3-3.1-7.2-7.4-7.4C29.1,5.2,21,5.2,13,5.5c-4.5,0.2-7.3,3.1-7.5,7.5
		c-0.3,8-0.3,16,0,24c0.2,4.5,3,7.1,7.5,7.6C16.9,45.1,20.9,45,24.9,45.2z"/>
	<path class="st0" d="M25.1,37.6c-7.2,0-12.7-5.5-12.7-12.6c0-7,5.5-12.5,12.5-12.5c7.2,0,12.7,5.5,12.7,12.6
		C37.6,32.1,32.1,37.6,25.1,37.6z M33.1,25c0-4.5-3.7-8.1-8.2-8c-4.4,0.1-7.9,3.6-8,8c0,4.5,3.6,8.1,8.1,8.1
		C29.5,33.1,33.1,29.5,33.1,25z"/>
	<path class="st0" d="M38,14.9c-1.7,0-2.9-1.3-2.9-3c0-1.7,1.3-2.9,3-2.9c1.7,0,2.9,1.3,2.9,3C41,13.7,39.7,15,38,14.9z"/>
</g>
</svg>
