<?xml version="1.0" encoding="utf-8"?>
<!-- Generator: Adobe Illustrator 26.1.0, SVG Export Plug-In . SVG Version: 6.00 Build 0)  -->
<svg version="1.1" id="Layer_1" xmlns="http://www.w3.org/2000/svg" xmlns:xlink="http://www.w3.org/1999/xlink" x="0px" y="0px"
	 viewBox="0 0 50 50" style="enable-background:new 0 0 50 50;" xml:space="preserve">
<style type="text/css">
	.st0{fill:#FFFFFF;}
</style>
<g>
	<path class="st0" d="M37.3,14.7c-0.8,0.3-1.6,0.6-2.3,1.1c-5.8,3.8-11.6,7.6-17.3,11.5c-2.9,2-5.9,2.7-9.3,1.5
		c-2-0.7-4.1-1.1-6.1-1.9c-0.9-0.4-1.6-1.3-2.3-1.9c0.7-0.7,1.2-1.8,2.1-2.2c5.2-2.4,10.5-4.7,15.8-7c8.4-3.5,16.8-7,25.3-10.5
		c0.9-0.4,1.9-0.7,2.9-0.9c2.7-0.6,4.1,0.4,3.8,3.1c-0.3,3.5-0.8,7.1-1.3,10.6c-1.2,7.3-2.5,14.6-3.7,21.9c0,0.1,0,0.3-0.1,0.4
		c-1,5.6-3.5,6.6-8.1,3.4c-4.1-2.8-8.3-5.6-12.4-8.4c-3.4-2.3-3.5-3.6-0.5-6.5C28,25,32.2,21,36.4,16.9c0.5-0.5,0.9-1,1.3-1.5
		C37.6,15.2,37.4,14.9,37.3,14.7z"/>
</g>
</svg>
